<svg width="40" height="40" viewBox="0 0 40 40" fill="none" xmlns="http://www.w3.org/2000/svg">
<g clip-path="url(#clip0_4_182)">
<path d="M18.2499 8.32922H10.6597C9.7967 8.32922 9.09717 9.02875 9.09717 9.89172C9.09717 10.7547 9.7967 11.4542 10.6597 11.4542H18.2499C19.1129 11.4542 19.8124 10.7547 19.8124 9.89172C19.8124 9.02875 19.1129 8.32922 18.2499 8.32922Z" fill="#6EA3FF"/>
<path d="M10.6597 22.3378C9.7967 22.3378 9.09717 23.0374 9.09717 23.9003C9.09717 24.7633 9.7967 25.4628 10.6597 25.4628H14.4548C15.3178 25.4628 16.0173 24.7633 16.0173 23.9003C16.0173 23.0374 15.3178 22.3378 14.4548 22.3378H10.6597Z" fill="#6EA3FF"/>
<path d="M19.8124 17.0717C19.8124 16.2087 19.1129 15.5092 18.2499 15.5092H10.6597C9.7967 15.5092 9.09717 16.2087 9.09717 17.0717C9.09717 17.9346 9.7967 18.6342 10.6597 18.6342H18.2499C19.1129 18.6342 19.8124 17.9345 19.8124 17.0717Z" fill="#6EA3FF"/>
<path d="M38.181 32.016L30.8545 19.6173C29.8887 17.983 28.1754 17.0072 26.2715 17.0072C24.3675 17.0072 22.6542 17.983 21.6884 19.6173L15.159 30.6671H7.23958C5.5638 30.6671 4.20044 29.3152 4.20044 27.6535V6.22328C4.20044 4.51492 5.602 3.125 7.32481 3.125H20.2108L24.709 7.12797V10.7571C24.709 11.6201 25.4085 12.3196 26.2715 12.3196C27.1344 12.3196 27.834 11.6201 27.834 10.7571V6.42688C27.834 5.98086 27.6434 5.55609 27.3102 5.25969L21.8441 0.395312C21.558 0.140703 21.1883 0 20.8054 0H7.32481C3.87888 0 1.07544 2.79172 1.07544 6.22328V27.6534C1.07544 31.0383 3.84067 33.792 7.23958 33.792H13.699C13.4865 34.9818 13.6934 36.2196 14.3215 37.3202C15.279 38.9982 17.0073 40 18.9449 40H33.598C35.5356 40 37.264 38.9982 38.2215 37.3202C39.1732 35.6523 39.158 33.6695 38.181 32.016ZM35.5072 35.7714C35.1129 36.4624 34.3992 36.875 33.5979 36.875H18.9448C18.1436 36.875 17.4299 36.4624 17.0356 35.7714C16.6413 35.0803 16.6473 34.291 17.0522 33.6058L24.3788 21.2071C24.7765 20.534 25.484 20.1321 26.2714 20.1321C27.0587 20.1321 27.7662 20.534 28.164 21.2071L35.4906 33.6058C35.8955 34.291 35.9015 35.0803 35.5072 35.7714Z" fill="#6EA3FF"/>
<path d="M26.2715 23.8948C25.4085 23.8948 24.709 24.5943 24.709 25.4573V26.8481C24.709 27.7111 25.4085 28.4106 26.2715 28.4106C27.1345 28.4106 27.834 27.7111 27.834 26.8481V25.4573C27.834 24.5943 27.1345 23.8948 26.2715 23.8948Z" fill="#6EA3FF"/>
<path d="M27.8034 32.0742C27.6786 31.4598 27.1916 30.972 26.5768 30.8477C25.9473 30.7204 25.2818 31.0088 24.9448 31.5552C24.5913 32.1283 24.6479 32.8749 25.0798 33.3902C25.5078 33.9006 26.2393 34.0742 26.8549 33.8283C27.5418 33.5537 27.9508 32.8004 27.8034 32.0742Z" fill="#6EA3FF"/>
</g>
<defs>
<clipPath id="clip0_4_182">
<rect width="40" height="40" fill="white"/>
</clipPath>
</defs>
</svg>
