<svg width="34" height="17" viewBox="0 0 34 17" fill="none" xmlns="http://www.w3.org/2000/svg">
<path d="M33.0663 7.75419L33.0651 7.75297L26.3295 1.04984C25.8249 0.547685 25.0087 0.549554 24.5064 1.05422C24.0042 1.55883 24.0061 2.375 24.5107 2.87721L29.033 7.37759H1.7334C1.02145 7.37759 0.444336 7.9547 0.444336 8.66665C0.444336 9.3786 1.02145 9.95572 1.7334 9.95572H29.033L24.5108 14.4561C24.0062 14.9583 24.0043 15.7745 24.5065 16.2791C25.0088 16.7838 25.825 16.7856 26.3295 16.2835L33.0652 9.58034L33.0663 9.57912C33.5712 9.07522 33.5696 8.25641 33.0663 7.75419Z" fill="#C4DAFF"/>
</svg>
