<svg width="40" height="40" viewBox="0 0 40 40" fill="none" xmlns="http://www.w3.org/2000/svg">
<g clip-path="url(#clip0_2_25)">
<path d="M20 40C8.98758 40 0 31.0117 0 20C0 8.98758 8.98828 0 20 0C31.0124 0 40 8.9882 40 20C40 31.0124 31.0118 40 20 40ZM20 2.34375C10.2643 2.34375 2.34375 10.2643 2.34375 20C2.34375 29.7357 10.2643 37.6562 20 37.6562C29.7357 37.6562 37.6562 29.7357 37.6562 20C37.6562 10.2643 29.7357 2.34375 20 2.34375Z" fill="#6EA3FF"/>
<path d="M20 25.8594C19.3528 25.8594 18.8281 25.3347 18.8281 24.6875V23.4333C18.8281 21.348 19.9504 19.4035 21.757 18.3584C22.8417 17.731 23.5156 16.5638 23.5156 15.3125C23.5156 13.374 21.9385 11.7969 20 11.7969C18.0615 11.7969 16.4844 13.374 16.4844 15.3125C16.4844 15.9597 15.9597 16.4844 15.3125 16.4844C14.6653 16.4844 14.1406 15.9597 14.1406 15.3125C14.1406 12.0816 16.7691 9.45312 20 9.45312C23.2309 9.45312 25.8594 12.0816 25.8594 15.3125C25.8594 17.3977 24.7371 19.3422 22.9305 20.3873C21.8458 21.0148 21.1719 22.182 21.1719 23.4333V24.6875C21.1719 25.3347 20.6472 25.8594 20 25.8594Z" fill="#6EA3FF"/>
<path d="M20 30.5469C20.6472 30.5469 21.1719 30.0222 21.1719 29.375C21.1719 28.7278 20.6472 28.2031 20 28.2031C19.3528 28.2031 18.8281 28.7278 18.8281 29.375C18.8281 30.0222 19.3528 30.5469 20 30.5469Z" fill="#6EA3FF"/>
</g>
<defs>
<clipPath id="clip0_2_25">
<rect width="40" height="40" fill="white"/>
</clipPath>
</defs>
</svg>
