<svg width="40" height="40" viewBox="0 0 40 40" fill="none" xmlns="http://www.w3.org/2000/svg">
<g clip-path="url(#clip0_2_115)">
<path d="M28.7978 13.5689V10.6808C28.7978 9.77624 28.0618 9.04022 27.1572 9.04022H6.80493C5.90032 9.04022 5.16431 9.77624 5.16431 10.6808V13.5689C5.16431 14.4735 5.90032 15.2095 6.80493 15.2095H27.1572C28.0618 15.2095 28.7978 14.4735 28.7978 13.5689ZM27.0791 13.4908H6.88306V10.759H27.0791V13.4908Z" fill="#6EA3FF"/>
<path d="M5.16431 33.2019C5.16431 34.1066 5.90032 34.8426 6.80493 34.8426H20.9322C21.8368 34.8426 22.5728 34.1066 22.5728 33.2019V30.3139C22.5728 29.4093 21.8368 28.6733 20.9322 28.6733H6.80493C5.90032 28.6733 5.16431 29.4093 5.16431 30.3139V33.2019ZM6.88306 30.3921H20.8541V33.1239H6.88306V30.3921Z" fill="#6EA3FF"/>
<path d="M31.9327 20.2529C32.4073 20.2529 32.7921 19.8681 32.7921 19.3935V6.68742C32.7921 4.4975 31.0104 2.71578 28.8204 2.71578H24.4054V2.42188C24.4054 1.08641 23.3189 0 21.9835 0H11.495C10.1596 0 9.07316 1.08641 9.07316 2.42188V2.71578H4.65816C2.46824 2.71578 0.686523 4.4975 0.686523 6.68742V36.0283C0.686602 38.2183 2.46824 40 4.65816 40H28.8203C31.0103 40 32.792 38.2183 32.792 36.0283V33.6557C32.792 33.1811 32.4072 32.7963 31.9326 32.7963C31.458 32.7963 31.0732 33.1811 31.0732 33.6557V36.0283C31.0732 37.2705 30.0625 38.2812 28.8203 38.2812H4.65816C3.41598 38.2812 2.40527 37.2705 2.40527 36.0283V6.68742C2.40527 5.44523 3.41598 4.43453 4.65816 4.43453H9.07316V4.72844C9.07316 6.06391 10.1596 7.15031 11.495 7.15031H21.9835C23.3189 7.15031 24.4054 6.06391 24.4054 4.72844V4.43453H28.8204C30.0626 4.43453 31.0733 5.44523 31.0733 6.68742V19.3936C31.0733 19.8681 31.4581 20.2529 31.9327 20.2529ZM22.6866 4.72836C22.6866 5.11609 22.3712 5.43148 21.9835 5.43148H11.495C11.1073 5.43148 10.7919 5.11609 10.7919 4.72836V2.42188C10.7919 2.03414 11.1073 1.71875 11.495 1.71875H21.9835C22.3712 1.71875 22.6866 2.03414 22.6866 2.42188V4.72836Z" fill="#6EA3FF"/>
<path d="M25.3425 17.6234C25.3425 17.1487 24.9577 16.764 24.4831 16.764H6.02368C5.54907 16.764 5.16431 17.1487 5.16431 17.6234C5.16431 18.098 5.54907 18.4827 6.02368 18.4827H24.4831C24.9577 18.4827 25.3425 18.098 25.3425 17.6234Z" fill="#6EA3FF"/>
<path d="M6.02368 22.3321H21.2014C21.676 22.3321 22.0608 21.9473 22.0608 21.4727C22.0608 20.9981 21.676 20.6133 21.2014 20.6133H6.02368C5.54907 20.6133 5.16431 20.9981 5.16431 21.4727C5.16431 21.9473 5.54907 22.3321 6.02368 22.3321Z" fill="#6EA3FF"/>
<path d="M6.02368 26.1815H19.9965C20.4711 26.1815 20.8559 25.7967 20.8559 25.3221C20.8559 24.8475 20.4711 24.4627 19.9965 24.4627H6.02368C5.54907 24.4627 5.16431 24.8475 5.16431 25.3221C5.16431 25.7967 5.54907 26.1815 6.02368 26.1815Z" fill="#6EA3FF"/>
<path d="M31.7039 18.9987C27.5081 18.9987 24.0945 22.4123 24.0945 26.6082C24.0945 30.8041 27.5081 34.2177 31.7039 34.2177C35.8999 34.2177 39.3135 30.8041 39.3135 26.6082C39.3135 22.4123 35.8999 18.9987 31.7039 18.9987ZM31.7039 32.499C28.4558 32.499 25.8132 29.8564 25.8132 26.6082C25.8132 23.36 28.4558 20.7174 31.7039 20.7174C34.9521 20.7174 37.5947 23.36 37.5947 26.6082C37.5947 29.8564 34.9521 32.499 31.7039 32.499Z" fill="#395FE2"/>
<path d="M33.9273 23.8834L30.6119 27.1988L29.9473 26.5342C29.6116 26.1986 29.0676 26.1986 28.7319 26.5342C28.3963 26.8698 28.3963 27.4139 28.7319 27.7495L30.0042 29.0218C30.172 29.1895 30.3919 29.2735 30.6119 29.2735C30.8318 29.2735 31.0517 29.1896 31.2195 29.0218L35.1426 25.0988C35.4782 24.7631 35.4782 24.219 35.1426 23.8834C34.807 23.5478 34.263 23.5478 33.9273 23.8834Z" fill="#395FE2"/>
</g>
<defs>
<clipPath id="clip0_2_115">
<rect width="40" height="40" fill="white"/>
</clipPath>
</defs>
</svg>
