<svg width="42" height="42" viewBox="0 0 42 42" fill="none" xmlns="http://www.w3.org/2000/svg">
<g clip-path="url(#clip0_2_43)">
<path d="M13.6172 19.8516C14.2968 19.8516 14.8477 19.3007 14.8477 18.6211C14.8477 17.9415 14.2968 17.3906 13.6172 17.3906C12.9376 17.3906 12.3867 17.9415 12.3867 18.6211C12.3867 19.3007 12.9376 19.8516 13.6172 19.8516Z" fill="#6EA3FF"/>
<path d="M36.7226 22.6777C36.2448 22.1946 35.4658 22.1902 34.9824 22.6681L28.3876 29.1904L26.7919 27.5948C26.3115 27.1142 25.5323 27.1142 25.0518 27.5948C24.5713 28.0753 24.5713 28.8543 25.0518 29.3349L27.5127 31.7958C27.753 32.0361 28.0679 32.1563 28.3829 32.1563C28.6956 32.1563 29.0083 32.0378 29.2481 31.8007L36.713 24.4179C37.1962 23.94 37.2004 23.1609 36.7226 22.6777Z" fill="#6EA3FF"/>
<path d="M35.8477 14.9297H27.1523V6.15234C27.1523 2.75994 24.3924 0 21 0H6.15234C2.75994 0 0 2.75994 0 6.15234V18.6211C0 21.5922 2.11723 24.0781 4.92188 24.6498V28.4648C4.92188 28.9606 5.21948 29.408 5.67673 29.5997C6.13758 29.7928 6.66446 29.6871 7.01515 29.342L11.66 24.7734H17.3086V30.9258C17.3086 34.3182 20.0685 37.0781 23.4609 37.0781H24.6914V40.7695C24.6914 41.2672 24.9911 41.7159 25.451 41.9063C25.9108 42.0968 26.4401 41.9915 26.792 41.6396L31.3534 37.0781H35.8477C39.2401 37.0781 42 34.3182 42 30.9258V21.082C42 17.6896 39.2401 14.9297 35.8477 14.9297ZM17.3086 21.082V22.3125H11.1562C10.8334 22.3125 10.5235 22.4393 10.2934 22.6657L7.38281 25.5286V23.543C7.38281 22.8634 6.83189 22.3125 6.15234 22.3125C4.1169 22.3125 2.46094 20.6565 2.46094 18.6211V6.15234C2.46094 4.1169 4.1169 2.46094 6.15234 2.46094H21C23.0354 2.46094 24.6914 4.1169 24.6914 6.15234V14.9297H23.4609C20.0685 14.9297 17.3086 17.6896 17.3086 21.082ZM39.5391 30.9258C39.5391 32.9612 37.8831 34.6172 35.8477 34.6172H30.8438C30.5173 34.6172 30.2044 34.7469 29.9737 34.9776L27.1523 37.7989V35.8477C27.1523 35.1681 26.6014 34.6172 25.9219 34.6172H23.4609C21.4255 34.6172 19.7695 32.9612 19.7695 30.9258V21.082C19.7695 19.0466 21.4255 17.3906 23.4609 17.3906H35.8477C37.8831 17.3906 39.5391 19.0466 39.5391 21.082V30.9258Z" fill="#6EA3FF"/>
<path d="M13.6172 4.92188C11.5817 4.92188 9.92578 6.57784 9.92578 8.61328C9.92578 9.29283 10.4767 9.84375 11.1562 9.84375C11.8358 9.84375 12.3867 9.29283 12.3867 8.61328C12.3867 7.9348 12.9387 7.38281 13.6172 7.38281C14.2957 7.38281 14.8477 7.9348 14.8477 8.61328C14.8477 8.9332 14.485 9.56115 13.9385 9.77854C12.9958 10.1534 12.3867 11.0512 12.3867 12.0656V13.6992C12.3867 14.3788 12.9376 14.9297 13.6172 14.9297C14.2967 14.9297 14.8395 14.3788 14.8395 13.6992L14.8399 12.0652C16.2426 11.5072 17.3086 10.0232 17.3086 8.61328C17.3086 6.57784 15.6527 4.92188 13.6172 4.92188Z" fill="#6EA3FF"/>
</g>
<defs>
<clipPath id="clip0_2_43">
<rect width="42" height="42" fill="white"/>
</clipPath>
</defs>
</svg>
